name ./resultDataOpenSim/trcMotMarkerGrf/sub06/grf-13-01.mot
datacolumns 19
datarows 22
range 0.55200000 0.63600000
endheader

                time	     ground_force_vx	     ground_force_vy	     ground_force_vz	     ground_force_px	     ground_force_py	     ground_force_pz	   l_ground_force_vx	   l_ground_force_vy	   l_ground_force_vz	   l_ground_force_px	   l_ground_force_py	   l_ground_force_pz	     ground_torque_x	     ground_torque_y	     ground_torque_z	   l_ground_torque_x	   l_ground_torque_y	   l_ground_torque_z	
          0.55200000	        188.07222006	        856.50650929	        -52.34744562	         -0.82975145	          0.00000000	          0.09356688	          0.00000000	          0.00000000	          0.00000000	          0.00000000	          0.00000000	          0.00000000	          0.00000000	         -0.40909389	          0.00000000	          0.00000000	          0.00000000	          0.00000000	
          0.55600000	        195.97413634	        859.41863213	        -52.17921896	         -0.82918019	          0.00000000	          0.09356728	          0.00000000	          0.00000000	          0.00000000	          0.00000000	          0.00000000	          0.00000000	          0.00000000	         -0.42699069	          0.00000000	          0.00000000	          0.00000000	          0.00000000	
          0.56000000	        203.18783136	        860.57088144	        -51.71565598	         -0.82855680	          0.00000000	          0.09351896	          0.00000000	          0.00000000	          0.00000000	          0.00000000	          0.00000000	          0.00000000	          0.00000000	         -0.42010081	          0.00000000	          0.00000000	          0.00000000	          0.00000000	
          0.56400000	        209.75125581	        860.03816886	        -51.15587502	         -0.82793011	          0.00000000	          0.09340462	          0.00000000	          0.00000000	          0.00000000	          0.00000000	          0.00000000	          0.00000000	          0.00000000	         -0.40268434	          0.00000000	          0.00000000	          0.00000000	          0.00000000	
          0.56800000	        215.75357378	        857.63538668	        -50.68081460	         -0.82730001	          0.00000000	          0.09324732	          0.00000000	          0.00000000	          0.00000000	          0.00000000	          0.00000000	          0.00000000	          0.00000000	         -0.39173505	          0.00000000	          0.00000000	          0.00000000	          0.00000000	
          0.57200000	        221.30901533	        853.07297265	        -50.41739615	         -0.82663076	          0.00000000	          0.09308875	          0.00000000	          0.00000000	          0.00000000	          0.00000000	          0.00000000	          0.00000000	          0.00000000	         -0.40315453	          0.00000000	          0.00000000	          0.00000000	          0.00000000	
          0.57600000	        226.55437805	        846.23131494	        -50.40949441	         -0.82590787	          0.00000000	          0.09294952	          0.00000000	          0.00000000	          0.00000000	          0.00000000	          0.00000000	          0.00000000	          0.00000000	         -0.44809173	          0.00000000	          0.00000000	          0.00000000	          0.00000000	
          0.58000000	        231.62638084	        837.26145614	        -50.58984070	         -0.82518217	          0.00000000	          0.09280499	          0.00000000	          0.00000000	          0.00000000	          0.00000000	          0.00000000	          0.00000000	          0.00000000	         -0.53043172	          0.00000000	          0.00000000	          0.00000000	          0.00000000	
          0.58400000	        236.60946976	        826.40743698	        -50.79066962	         -0.82452827	          0.00000000	          0.09261319	          0.00000000	          0.00000000	          0.00000000	          0.00000000	          0.00000000	          0.00000000	          0.00000000	         -0.64612277	          0.00000000	          0.00000000	          0.00000000	          0.00000000	
          0.58800000	        241.48398192	        813.77332529	        -50.80293669	         -0.82398078	          0.00000000	          0.09236143	          0.00000000	          0.00000000	          0.00000000	          0.00000000	          0.00000000	          0.00000000	          0.00000000	         -0.78439513	          0.00000000	          0.00000000	          0.00000000	          0.00000000	
          0.59200000	        246.12090092	        799.29587773	        -50.42939479	         -0.82350857	          0.00000000	          0.09207054	          0.00000000	          0.00000000	          0.00000000	          0.00000000	          0.00000000	          0.00000000	          0.00000000	         -0.93042108	          0.00000000	          0.00000000	          0.00000000	          0.00000000	
          0.59600000	        250.33206846	        782.90507769	        -49.50495074	         -0.82307710	          0.00000000	          0.09176222	          0.00000000	          0.00000000	          0.00000000	          0.00000000	          0.00000000	          0.00000000	          0.00000000	         -1.06883512	          0.00000000	          0.00000000	          0.00000000	          0.00000000	
          0.60000000	        253.92790990	        764.65000565	        -47.90639948	         -0.82269762	          0.00000000	          0.09142933	          0.00000000	          0.00000000	          0.00000000	          0.00000000	          0.00000000	          0.00000000	          0.00000000	         -1.18750744	          0.00000000	          0.00000000	          0.00000000	          0.00000000	
          0.60400000	        256.73036761	        744.63547129	        -45.57589978	         -0.82241851	          0.00000000	          0.09104005	          0.00000000	          0.00000000	          0.00000000	          0.00000000	          0.00000000	          0.00000000	          0.00000000	         -1.28073563	          0.00000000	          0.00000000	          0.00000000	          0.00000000	
          0.60800000	        258.55416095	        722.80847015	        -42.55555243	         -0.82226028	          0.00000000	          0.09058265	          0.00000000	          0.00000000	          0.00000000	          0.00000000	          0.00000000	          0.00000000	          0.00000000	         -1.35074824	          0.00000000	          0.00000000	          0.00000000	          0.00000000	
          0.61200000	        259.21106050	        698.79558540	        -39.00046145	         -0.82219606	          0.00000000	          0.09010362	          0.00000000	          0.00000000	          0.00000000	          0.00000000	          0.00000000	          0.00000000	          0.00000000	         -1.40661391	          0.00000000	          0.00000000	          0.00000000	          0.00000000	
          0.61600000	        258.52626723	        672.01846912	        -35.15083372	         -0.82215613	          0.00000000	          0.08969302	          0.00000000	          0.00000000	          0.00000000	          0.00000000	          0.00000000	          0.00000000	          0.00000000	         -1.46061155	          0.00000000	          0.00000000	          0.00000000	          0.00000000	
          0.62000000	        256.32504544	        642.05173449	        -31.26981798	         -0.82207030	          0.00000000	          0.08940435	          0.00000000	          0.00000000	          0.00000000	          0.00000000	          0.00000000	          0.00000000	          0.00000000	         -1.52340140	          0.00000000	          0.00000000	          0.00000000	          0.00000000	
          0.62400000	        252.42230784	        608.84623730	        -27.56994458	         -0.82195265	          0.00000000	          0.08920588	          0.00000000	          0.00000000	          0.00000000	          0.00000000	          0.00000000	          0.00000000	          0.00000000	         -1.59992384	          0.00000000	          0.00000000	          0.00000000	          0.00000000	
          0.62800000	        246.62203028	        572.55601383	        -24.17120918	         -0.82190636	          0.00000000	          0.08903570	          0.00000000	          0.00000000	          0.00000000	          0.00000000	          0.00000000	          0.00000000	          0.00000000	         -1.68720412	          0.00000000	          0.00000000	          0.00000000	          0.00000000	
          0.63200000	        238.66333499	        533.23122858	        -21.11119742	         -0.82196627	          0.00000000	          0.08890824	          0.00000000	          0.00000000	          0.00000000	          0.00000000	          0.00000000	          0.00000000	          0.00000000	         -1.77388329	          0.00000000	          0.00000000	          0.00000000	          0.00000000	
          0.63600000	        228.17022591	        490.85793071	        -18.37259343	         -0.82194328	          0.00000000	          0.08893126	          0.00000000	          0.00000000	          0.00000000	          0.00000000	          0.00000000	          0.00000000	          0.00000000	         -1.84082738	          0.00000000	          0.00000000	          0.00000000	          0.00000000	
